<?xml version="1.0" encoding="UTF-8"?><svg id="a" xmlns="http://www.w3.org/2000/svg" width="1749.236" height="1553.923" viewBox="0 0 1749.236 1553.923"><g><g><rect x="207.546" y="567.787" width="1329.536" height="780.513" rx="20.301" ry="20.301" style="fill:#fff; stroke:#9dcbf7; stroke-miterlimit:10; stroke-width:1.283px;"/><path d="M227.847,567.787H1516.781c11.204,0,20.301,9.097,20.301,20.301v635.523H207.546V588.088c0-11.204,9.097-20.301,20.301-20.301Z" style="fill:#fff; stroke:#9dcbf7; stroke-miterlimit:10; stroke-width:1.283px;"/><path d="M1046.313,1475.454v18.96h-390.384v-18.96c27.585,0,50.18-21.294,52.267-48.33,.101-1.35,.157-2.722,.157-4.094v-74.73h285.537v74.73c0,1.372,.056,2.744,.157,4.094,.992,12.838,6.615,24.393,15.191,32.981,9.492,9.482,22.598,15.349,37.076,15.349h0Z" style="fill:#fff; stroke:#9dcbf7; stroke-miterlimit:10; stroke-width:1.283px;"/></g><rect x="224.781" y="585.059" width="1292.442" height="613.82" rx="20.301" ry="20.301" style="fill:#e0effc; stroke:#fff; stroke-miterlimit:10; stroke-width:1.283px;"/><g><g><rect x="745.816" y="797.464" width="253.436" height="194.447" transform="translate(1745.068 1789.376) rotate(180)" style="fill:#9dcbf7;"/><path d="M771.041,839.988c-3.073,16.207,10.873,30.152,27.08,27.079,9.055-1.716,16.357-9.019,18.073-18.073,3.071-16.206-10.873-30.15-27.079-27.078-9.055,1.716-16.357,9.018-18.073,18.073Z" style="fill:#fff; opacity:.6;"/><polygon points="829.426 950.017 999.252 950.017 914.339 845.367 829.426 950.017" style="fill:#c4dffa;"/><polygon points="745.816 950.111 896.42 950.111 821.118 881.964 745.816 950.111" style="fill:#e0effc;"/><rect x="745.816" y="950.017" width="253.436" height="41.894" style="fill:#e0effc;"/></g><rect x="425.754" y="1018.818" width="134.024" height="11.276" style="fill:#9dcbf7;"/><rect x="425.754" y="1044.98" width="569.59" height="11.277" style="fill:#fff;"/><rect x="425.754" y="1069.788" width="569.59" height="11.277" style="fill:#fff;"/><rect x="425.754" y="1094.597" width="569.59" height="11.276" style="fill:#fff;"/><rect x="425.754" y="1119.405" width="569.59" height="11.277" style="fill:#fff;"/><rect x="425.754" y="1144.214" width="569.59" height="11.277" style="fill:#fff;"/><rect x="1034.079" y="799.159" width="134.024" height="11.277" style="fill:#9dcbf7;"/><rect x="1034.079" y="825.32" width="284.795" height="11.277" style="fill:#fff;"/><rect x="1034.079" y="850.129" width="284.795" height="11.276" style="fill:#fff;"/><rect x="1034.079" y="874.937" width="284.795" height="11.277" style="fill:#fff;"/><rect x="1034.079" y="899.746" width="284.795" height="11.277" style="fill:#fff;"/><rect x="1034.079" y="945.746" width="284.795" height="11.277" style="fill:#fff;"/><rect x="1034.079" y="970.554" width="284.795" height="11.277" style="fill:#fff;"/><rect x="1034.079" y="995.363" width="284.795" height="11.276" style="fill:#fff;"/><rect x="1034.079" y="1020.171" width="284.795" height="11.276" style="fill:#fff;"/><rect x="1034.079" y="1044.98" width="284.795" height="11.277" style="fill:#fff;"/><rect x="1034.079" y="1094.597" width="284.795" height="11.276" style="fill:#fff;"/><rect x="1034.079" y="1119.405" width="191.951" height="11.277" style="fill:#fff;"/><rect x="425.754" y="797.464" width="134.024" height="30.167" style="fill:#9dcbf7;"/><rect x="643.111" y="667.424" width="486.944" height="56.261" style="fill:#75b4f0;"/><rect x="425.754" y="848.435" width="284.368" height="11.276" style="fill:#fff;"/><rect x="425.754" y="873.243" width="284.368" height="11.277" style="fill:#fff;"/><rect x="425.754" y="898.051" width="284.368" height="11.277" style="fill:#fff;"/><rect x="425.754" y="922.86" width="284.368" height="11.276" style="fill:#fff;"/><rect x="425.754" y="955.859" width="284.368" height="11.276" style="fill:#fff;"/><rect x="425.754" y="980.667" width="284.368" height="11.277" style="fill:#fff;"/></g><g><path d="M752.273,1320.412c-5.275-3.144-9.34-7.658-12.193-13.548-2.855-5.889-4.281-12.844-4.281-20.865,0-7.948,1.425-14.865,4.281-20.755,2.853-5.889,6.918-10.405,12.193-13.548,5.274-3.144,11.525-4.716,18.751-4.716,4.84,0,9.411,.778,13.71,2.331,4.298,1.554,8.038,3.776,11.218,6.666,1.155,1.084,1.734,2.348,1.734,3.793,0,1.013-.289,1.897-.867,2.655-.579,.758-1.265,1.138-2.059,1.138-.867,0-1.915-.396-3.144-1.192-3.685-2.89-7.028-4.914-10.025-6.07-2.999-1.154-6.449-1.733-10.351-1.733-8.383,0-14.832,2.728-19.347,8.182-4.516,5.458-6.774,13.207-6.774,23.249,0,10.118,2.258,17.903,6.774,23.358,4.515,5.456,10.964,8.183,19.347,8.183,3.828,0,7.262-.578,10.296-1.734,3.035-1.155,6.395-3.179,10.08-6.07,1.228-.793,2.276-1.192,3.144-1.192,.794,0,1.48,.362,2.059,1.084,.578,.723,.867,1.625,.867,2.709,0,1.446-.579,2.709-1.734,3.793-3.181,2.891-6.92,5.113-11.218,6.666-4.3,1.554-8.871,2.331-13.71,2.331-7.226,0-13.477-1.571-18.751-4.714Z" style="fill:#85b6f1;"/><path d="M888.459,1248.551c.759,.832,1.139,1.935,1.139,3.306v68.609c0,1.301-.363,2.348-1.084,3.143-.723,.795-1.734,1.192-3.035,1.192s-2.276-.397-2.926-1.192-.976-1.842-.976-3.143v-55.386l-23.52,45.088c-1.013,2.097-2.493,3.144-4.444,3.144-1.88,0-3.36-1.048-4.444-3.144l-23.629-44.547v54.844c0,1.301-.343,2.348-1.029,3.143-.687,.795-1.68,1.192-2.981,1.192s-2.313-.397-3.035-1.192c-.723-.795-1.084-1.842-1.084-3.143v-68.609c0-1.371,.397-2.474,1.192-3.306,.794-.83,1.878-1.246,3.251-1.246,1.805,0,3.252,1.048,4.335,3.143l27.53,52.784,27.205-52.784c.578-1.155,1.209-1.967,1.897-2.439,.686-.469,1.499-.704,2.439-.704,1.372,0,2.439,.416,3.197,1.246Z" style="fill:#85b6f1;"/><path d="M922.816,1322.688c-4.95-1.625-8.906-3.811-11.868-6.558-1.084-1.01-1.626-2.276-1.626-3.793,0-1.011,.288-1.896,.867-2.655,.578-.758,1.263-1.138,2.059-1.138,.939,0,1.951,.399,3.035,1.192,6.72,5.203,14.378,7.805,22.978,7.805,6.214,0,10.983-1.193,14.307-3.577,3.323-2.385,4.986-5.781,4.986-10.188,0-2.529-.796-4.569-2.384-6.124-1.59-1.553-3.685-2.8-6.287-3.739-2.601-.939-6.107-1.914-10.514-2.926-5.926-1.372-10.784-2.818-14.578-4.336-3.794-1.518-6.866-3.684-9.213-6.503-2.348-2.818-3.522-6.503-3.522-11.056,0-4.335,1.174-8.183,3.522-11.543,2.348-3.36,5.636-5.961,9.863-7.804,4.228-1.843,9.05-2.765,14.47-2.765,5.057,0,9.772,.778,14.145,2.331,4.371,1.554,8.037,3.776,11.001,6.666,1.155,1.157,1.734,2.421,1.734,3.793,0,1.013-.29,1.897-.867,2.655-.58,.758-1.265,1.138-2.06,1.138s-1.842-.396-3.143-1.192c-3.541-2.89-6.829-4.914-9.863-6.07-3.035-1.154-6.684-1.733-10.947-1.733-5.998,0-10.659,1.246-13.982,3.738-3.325,2.494-4.986,5.98-4.986,10.46,0,3.83,1.463,6.702,4.39,8.616,2.926,1.916,7.424,3.595,13.494,5.04,6.574,1.59,11.742,3.054,15.499,4.39,3.756,1.338,6.882,3.343,9.376,6.015,2.493,2.674,3.739,6.251,3.739,10.731,0,4.263-1.175,8.02-3.523,11.271-2.349,3.252-5.655,5.782-9.918,7.588-4.264,1.807-9.141,2.709-14.632,2.709-5.419,0-10.605-.813-15.553-2.439Z" style="fill:#85b6f1;"/></g><path d="M964.874,990.475c-.708-2.622-3.41-4.173-6.031-3.465s-4.173,3.41-3.465,6.031l1.283,4.748c.748,2.592,3.416,4.124,6.031,3.465,2.549-.802,4.055-3.425,3.465-6.031l-1.283-4.748Zm-20.789,13.859c-2.622-.708-5.323,.843-6.031,3.465s.843,5.323,3.465,6.031l4.748,1.283c2.606,.59,5.229-.916,6.031-3.465,.66-2.615-.873-5.283-3.465-6.031l-4.748-1.283Zm43.117-2.823c1.913-1.895,1.929-4.983,.033-6.896l-.033-.033c-1.961-1.794-4.969-1.794-6.93,0l-3.465,3.465c-1.913,1.913-1.913,5.016,0,6.93s5.016,1.913,6.93,0l3.465-3.465Zm-34.648,34.648l3.465-3.465c1.913-1.913,1.913-5.016,0-6.93s-5.016-1.913-6.93,0h0l-3.465,3.465c-1.794,1.961-1.794,4.969,0,6.93,1.895,1.913,4.983,1.929,6.896,.033l.033-.033Zm15.784-25.28c-2.47-1.074-5.342,.058-6.416,2.528-.539,1.24-.539,2.649,0,3.888l19.634,48.892c.667,1.782,2.333,2.995,4.235,3.08,1.931,.069,3.729-.98,4.62-2.695l6.801-13.474,14.757,14.757c1.913,1.913,5.016,1.913,6.93,0s1.913-5.016,0-6.93l-14.757-14.757,13.474-6.801c1.714-.891,2.764-2.688,2.695-4.62-.085-1.902-1.297-3.567-3.08-4.235l-48.892-19.634h0Z" style="fill:#75b4f0; fill-rule:evenodd;"/></g><g><g><path d="M296.75,1343.247l-62.635,17.305c-3.606,.996-7.346-1.074-8.415-4.659l-81.579-273.288c-1.158-3.878,1.269-7.91,5.237-8.705l69.64-13.938c3.534-.707,7.013,1.435,7.973,4.909l74.574,269.921c1.011,3.659-1.136,7.443-4.794,8.454v.002Z" style="fill:#75b4f0;"/><g><path d="M188.602,1183.641l10.353,32.18c.974,3.029,4.144,4.769,7.222,3.965l43.916-11.476c3.234-.846,5.153-4.174,4.263-7.396l-8.989-32.536c-.873-3.16-4.122-5.033-7.293-4.204l-45.28,11.831c-3.33,.87-5.246,4.36-4.191,7.636h0Z" style="fill:#4c95db;"/><path d="M251.623,1213.217l-43.225,11.294c-3.33,.87-5.246,4.36-4.191,7.636l10.351,32.18c.974,3.029,4.144,4.769,7.222,3.965l41.862-10.939c3.234-.846,5.153-4.174,4.263-7.396l-8.989-32.536c-.873-3.16-4.122-5.033-7.293-4.204h0Z" style="fill:#9dcbf7;"/><path d="M227.255,1102.824l-6.769-24.501c-.802-2.903-3.634-4.761-6.618-4.34l-50.863,7.183c-3.683,.52-6.008,4.232-4.869,7.772l9.608,29.865c.974,3.029,4.144,4.769,7.222,3.965l48.025-12.548c3.234-.846,5.153-4.174,4.263-7.396h0Z" style="fill:#144b82;"/><path d="M172.998,1135.132l10.352,32.179c.974,3.029,4.144,4.769,7.222,3.965l45.97-12.011c3.234-.846,5.153-4.174,4.263-7.396l-8.989-32.536c-.873-3.16-4.122-5.033-7.293-4.204l-47.333,12.368c-3.33,.87-5.246,4.36-4.191,7.636h0Z" style="fill:#32679b;"/><path d="M219.81,1280.655l7.533,23.415c.984,3.059,4.205,4.798,7.304,3.942l40.024-11.058c3.191-.882,5.064-4.184,4.182-7.375l-6.386-23.114c-.873-3.16-4.122-5.033-7.295-4.203l-41.171,10.758c-3.33,.87-5.246,4.36-4.191,7.636h0Z" style="fill:#c4dffa;"/></g></g><g><path d="M300.344,1338.355l-52.19,38.716c-3.004,2.229-7.239,1.646-9.529-1.312l-174.59-225.523c-2.477-3.199-1.667-7.836,1.747-10.007l59.937-38.099c3.042-1.933,7.059-1.189,9.206,1.705l166.842,224.907c2.261,3.048,1.624,7.353-1.424,9.614h.001Z" style="fill:#9dcbf7;"/><g><path d="M141.942,1228.449l21.253,26.286c2,2.474,5.585,2.954,8.167,1.095l36.829-26.531c2.714-1.955,3.303-5.751,1.31-8.437l-20.111-27.109c-1.954-2.633-5.659-3.209-8.318-1.292l-37.973,27.354c-2.792,2.012-3.321,5.957-1.157,8.634h0Z" style="fill:#eaf2fa;"/><path d="M211.387,1233.327l-36.249,26.114c-2.792,2.012-3.321,5.957-1.157,8.634l21.253,26.286c2,2.474,5.585,2.954,8.167,1.095l35.107-25.291c2.713-1.954,3.303-5.751,1.31-8.437l-20.111-27.109c-1.954-2.633-5.659-3.209-8.318-1.292h-.001Z" style="fill:#dfe9f2;"/><path d="M148.873,1139.134l-15.145-20.415c-1.795-2.42-5.105-3.131-7.737-1.663l-44.856,25.031c-3.247,1.812-4.079,6.113-1.741,9.004l19.725,24.396c2,2.474,5.585,2.954,8.165,1.095l40.276-29.013c2.714-1.955,3.303-5.75,1.31-8.437h.002Z" style="fill:#fff;"/><path d="M109.905,1188.825l21.253,26.286c2,2.474,5.585,2.954,8.165,1.095l38.552-27.772c2.714-1.955,3.303-5.75,1.31-8.437l-20.111-27.109c-1.954-2.633-5.659-3.209-8.318-1.292l-39.695,28.595c-2.792,2.012-3.321,5.957-1.157,8.634h0Z" style="fill:#f8faff;"/><path d="M206.017,1307.697l15.465,19.127c2.021,2.5,5.652,2.961,8.234,1.045l33.35-24.74c2.659-1.973,3.216-5.728,1.243-8.387l-14.287-19.259c-1.954-2.633-5.659-3.209-8.318-1.292l-34.527,24.872c-2.792,2.012-3.321,5.957-1.157,8.634h-.001Z" style="fill:#c4dffa;"/></g></g><g><path d="M302.199,1330.853l-26.712,59.238c-1.538,3.41-5.52,4.964-8.96,3.497L4.179,1281.716c-3.722-1.588-5.274-6.03-3.35-9.591l33.777-62.475c1.714-3.169,5.586-4.478,8.871-2.997l255.281,115.11c3.46,1.56,4.999,5.63,3.441,9.09h0Z" style="fill:#c4dffa;"/><g><path d="M110.32,1312.057l31.368,12.599c2.952,1.186,6.317-.141,7.664-3.023l19.235-41.114c1.417-3.029,.082-6.631-2.965-8.006l-30.772-13.875c-2.988-1.347-6.505-.045-7.895,2.924l-19.832,42.389c-1.459,3.118,.002,6.821,3.196,8.103v.002Z" style="fill:#144b82;"/><path d="M173.341,1282.479l-18.932,40.467c-1.459,3.118,.002,6.821,3.196,8.103l31.368,12.599c2.952,1.186,6.317-.141,7.664-3.023l18.335-39.19c1.417-3.029,.082-6.631-2.965-8.006l-30.772-13.875c-2.988-1.347-6.505-.045-7.895,2.925h0Z" style="fill:#32679b;"/><path d="M72.854,1230.684l-23.172-10.449c-2.746-1.238-5.985-.246-7.566,2.317l-26.975,43.716c-1.953,3.165-.583,7.325,2.867,8.711l29.112,11.693c2.952,1.186,6.317-.141,7.664-3.023l21.035-44.959c1.417-3.029,.082-6.631-2.965-8.006h.002Z" style="fill:#08233e;"/><path d="M63.037,1293.065l31.368,12.599c2.952,1.186,6.317-.141,7.664-3.023l20.135-43.037c1.417-3.029,.082-6.631-2.965-8.006l-30.77-13.876c-2.988-1.347-6.505-.045-7.895,2.924l-20.732,44.312c-1.459,3.118,.002,6.821,3.196,8.103v.003Z" style="fill:#0c3157;"/><path d="M204.889,1350.041l22.825,9.168c2.982,1.198,6.378-.169,7.699-3.099l17.068-37.854c1.361-3.019,.017-6.568-3-7.93l-21.861-9.858c-2.988-1.347-6.505-.045-7.895,2.925l-18.032,38.543c-1.459,3.118,.002,6.821,3.196,8.103h0Z" style="fill:#4c95db;"/></g></g></g><g><g><rect x="1250.579" y="317.771" width="482.484" height="336.409" style="fill:#fff; stroke:#9dcbf7; stroke-miterlimit:10; stroke-width:1.283px;"/><rect x="1250.579" y="317.771" width="482.484" height="43.237" style="fill:#fff; stroke:#9dcbf7; stroke-miterlimit:10; stroke-width:1.283px;"/><g><path d="M1288.304,340.914c0,5.304-4.299,9.603-9.603,9.603s-9.603-4.299-9.603-9.603,4.299-9.603,9.603-9.603,9.603,4.299,9.603,9.603Z" style="fill:#9dcbf7;"/><path d="M1327.517,340.914c0,5.304-4.299,9.603-9.603,9.603s-9.603-4.299-9.603-9.603,4.299-9.603,9.603-9.603,9.603,4.299,9.603,9.603Z" style="fill:#e0effc;"/><path d="M1366.731,340.914c0,5.304-4.299,9.603-9.603,9.603s-9.603-4.299-9.603-9.603,4.3-9.603,9.603-9.603,9.603,4.299,9.603,9.603Z" style="fill:#4c95db;"/></g></g><g><path d="M1377.398,498.649l64.365-33.562v14.301c0,1.085-.275,2.074-.815,2.968-.542,.894-1.436,1.667-2.682,2.317l-29.499,15.116c-1.246,.648-2.558,1.206-3.942,1.664-1.381,.463-2.86,.881-4.428,1.259,1.569,.378,3.048,.802,4.428,1.262,1.384,.46,2.696,1.016,3.942,1.664l29.499,15.198c1.246,.651,2.14,1.423,2.682,2.317,.54,.892,.815,1.881,.815,2.963v14.306l-64.365-33.647v-8.127Z" style="fill:#9dcbf7;"/><path d="M1478.085,557.729c-.487,1.249-1.111,2.331-1.868,3.254-.759,.921-1.624,1.693-2.6,2.315-.976,.622-2.005,1.098-3.087,1.421-1.085,.328-2.143,.489-3.169,.489h-8.455l47.461-121.414c.921-2.275,2.246-4.024,3.981-5.241,1.735-1.22,3.82-1.831,6.259-1.831h8.534l-47.057,121.006Z" style="fill:#9dcbf7;"/><path d="M1541.881,540.423v-14.306c0-1.082,.27-2.071,.81-2.963,.542-.894,1.437-1.667,2.682-2.317l29.502-15.198c2.381-1.19,5.172-2.167,8.37-2.926-1.571-.378-3.047-.796-4.428-1.259-1.381-.458-2.698-1.016-3.942-1.664l-29.502-15.116c-1.246-.651-2.14-1.423-2.682-2.317-.54-.894-.81-1.884-.81-2.968v-14.301l64.363,33.562v8.127l-64.363,33.647Z" style="fill:#9dcbf7;"/></g></g><g><circle cx="1537.082" cy="874.937" r="96.144" style="fill:#fff; stroke:#c4dffa; stroke-miterlimit:10; stroke-width:1.263px;"/><path d="M1582.291,874.997c-.029,21.806-20.258,39.514-45.261,39.481-8.034,.004-15.952-1.9-23.107-5.554l-22.103,5.495,7.583-17.579c-4.796-6.325-7.436-14.022-7.531-21.96,.029-21.806,20.258-39.514,45.261-39.481,25.003,.033,45.186,17.794,45.157,39.598Zm-62.065-5.751l-11.339-.015-.015,11.339,11.339,.015,.015-11.339h0Zm45.064,.059l-11.339-.015-.015,11.339,11.339,.015,.015-11.339h0Zm-33.87-.044l11.339,.015-.015,11.339-11.339-.015,.015-11.339h0Z" style="fill:#9dcbf7; fill-rule:evenodd;"/></g><path d="M87.809,.693H694.975c5.38,0,9.748,4.368,9.748,9.748V671.385c0,5.381-4.368,9.75-9.75,9.75H87.811c-5.381,0-9.75-4.368-9.75-9.75V10.443c0-5.38,4.368-9.748,9.748-9.748h0v-.002Z" style="fill:#fff; stroke:#c4dffa; stroke-miterlimit:10; stroke-width:1.386px;"/><path d="M623.85,187.641H154.739c-14.672,0-26.608-11.936-26.608-26.606v-35.214c0-14.67,11.936-26.606,26.608-26.606v1.889c-13.63,0-24.719,11.087-24.719,24.717v35.214c0,13.63,11.089,24.717,24.719,24.717h469.111c13.63,0,24.717-11.088,24.717-24.717v-35.214c0-13.63-11.087-24.717-24.717-24.717H333.301v-1.889h290.55c14.67,0,26.606,11.936,26.606,26.606v35.214c0,14.67-11.936,26.606-26.606,26.606h0Z" style="fill:#9dcbf7;"/><path d="M623.85,322.446H154.739c-14.672,0-26.608-11.936-26.608-26.606v-35.214c0-14.67,11.936-26.606,26.608-26.606v1.889c-13.63,0-24.719,11.087-24.719,24.717v35.214c0,13.63,11.089,24.717,24.719,24.717h469.111c13.63,0,24.717-11.088,24.717-24.717v-35.214c0-13.63-11.087-24.717-24.717-24.717H333.301v-1.889h290.55c14.67,0,26.606,11.936,26.606,26.606v35.214c0,14.67-11.936,26.606-26.606,26.606h0Z" style="fill:#9dcbf7;"/><path d="M623.85,575.134H154.739c-14.672,0-26.608-11.936-26.608-26.606v-35.214c0-14.67,11.936-26.606,26.608-26.606v1.889c-13.63,0-24.719,11.087-24.719,24.717v35.214c0,13.63,11.089,24.717,24.719,24.717h469.111c13.63,0,24.717-11.088,24.717-24.717v-35.214c0-13.63-11.087-24.717-24.717-24.717H333.301v-1.889h290.55c14.67,0,26.606,11.936,26.606,26.606v35.214c0,14.67-11.936,26.606-26.606,26.606h0Z" style="fill:#9dcbf7;"/><path d="M623.85,448.444H154.739c-14.672,0-26.608-11.936-26.608-26.606v-35.214c0-14.67,11.936-26.606,26.608-26.606v1.889c-13.63,0-24.719,11.087-24.719,24.717v35.214c0,13.63,11.089,24.717,24.719,24.717h469.111c13.63,0,24.717-11.088,24.717-24.717v-35.214c0-13.63-11.087-24.717-24.717-24.717H333.301v-1.889h290.55c14.67,0,26.606,11.936,26.606,26.606v35.214c0,14.67-11.936,26.606-26.606,26.606h0Z" style="fill:#9dcbf7;"/><rect x="600.459" y="137.115" width="582.651" height="144.5" rx="11.556" ry="11.556" style="fill:#fff; stroke:#c4dffa; stroke-miterlimit:10; stroke-width:1.005px;"/><path d="M785.177,209.365h0c0,11.309-9.168,20.477-20.477,20.477h-116.269c-11.309,0-20.477-9.168-20.477-20.477h0c0-11.309,9.168-20.477,20.477-20.477h116.269c11.309,0,20.477,9.168,20.477,20.477Z" style="fill:#4c95db;"/><path d="M967.543,209.259h0c0,11.309-9.168,20.477-20.477,20.477h-116.269c-11.309,0-20.477-9.168-20.477-20.477h0c0-11.309,9.168-20.477,20.477-20.477h116.269c11.309,0,20.477,9.168,20.477,20.477Z" style="fill:none; stroke:#4c95db; stroke-miterlimit:10;"/><path d="M1146.57,209.364h0c0,11.309-8.961,20.477-20.014,20.477h-113.643c-11.054,0-20.014-9.168-20.014-20.477h0c0-11.309,8.961-20.477,20.014-20.477h113.643c11.054,0,20.014,9.168,20.014,20.477Z" style="fill:#4c95db;"/><path d="M1041.203,211.041c.443-.012,.843-.266,1.041-.662l3.563-7.127c.192-.368,.18-.81-.032-1.167-.217-.35-.598-.564-1.009-.568h-12.74l-.378-1.482c-.14-.514-.603-.874-1.135-.883h-2.397c-.653,.107-1.096,.723-.989,1.376,.083,.508,.481,.906,.989,.989h1.451l.378,1.451v.063l1.608,6.433-1.041,1.072c-.941,.906-.968,2.404-.062,3.344,.453,.47,1.08,.732,1.733,.724h10.186c.662,0,1.198-.537,1.198-1.199s-.536-1.197-1.198-1.198h-10.186l1.198-1.167h7.822Z" style="fill:#fff;"/><circle cx="1041.802" cy="217.569" r="1.798" style="fill:#fff;"/><circle cx="1032.279" cy="217.569" r="1.798" style="fill:#fff;"/><path d="M1147.587,240.245c-.397-1.47-1.912-2.34-3.382-1.943s-2.34,1.912-1.943,3.382l.72,2.662c.42,1.453,1.915,2.312,3.382,1.943,1.429-.45,2.274-1.921,1.943-3.382l-.72-2.662Zm-11.657,7.771c-1.47-.397-2.985,.472-3.382,1.943s.472,2.985,1.943,3.382l2.662,.72c1.461,.331,2.932-.514,3.382-1.943,.37-1.467-.49-2.962-1.943-3.382l-2.662-.72Zm24.177-1.583c1.073-1.063,1.081-2.794,.019-3.867l-.019-.019c-1.1-1.006-2.786-1.006-3.886,0l-1.943,1.943c-1.073,1.073-1.073,2.813,0,3.886s2.813,1.073,3.886,0l1.943-1.943Zm-19.428,19.428l1.943-1.943c1.073-1.073,1.073-2.813,0-3.886s-2.813-1.073-3.886,0h0l-1.943,1.943c-1.006,1.1-1.006,2.786,0,3.886,1.063,1.073,2.794,1.081,3.867,.019l.019-.019Zm8.851-14.175c-1.385-.602-2.996,.032-3.598,1.417-.302,.695-.302,1.485,0,2.18l11.009,27.416c.374,1,1.308,1.679,2.375,1.727,1.083,.039,2.091-.55,2.59-1.511l3.814-7.555,8.275,8.275c1.073,1.073,2.813,1.073,3.886,0s1.073-2.813,0-3.886l-8.275-8.275,7.555-3.814c.962-.499,1.55-1.508,1.511-2.59-.048-1.066-.727-2.001-1.727-2.375l-27.416-11.009h.001Z" style="fill:#9dcbf7; fill-rule:evenodd;"/><path d="M620.267,399.839c-4.445-4.515-10.104-7.001-15.932-7.001s-11.488,2.486-15.933,7.001c-2.258,2.298-2.258,6.485,0,8.783,4.442,4.515,10.1,7.001,15.933,7.001s11.491-2.486,15.932-7.001c2.258-2.298,2.258-6.485,0-8.783Zm-15.932,10.13c-3.162,0-5.736-2.575-5.736-5.736s2.575-5.736,5.736-5.736,5.736,2.575,5.736,5.736-2.575,5.736-5.736,5.736Zm-13.726-7.961c2.796-2.841,6.133-4.722,9.655-5.562-2.813,1.477-4.756,4.394-4.756,7.786s1.937,6.299,4.743,7.779c-3.518-.841-6.852-2.72-9.642-5.558-1.081-1.099-1.081-3.346,0-4.445h0Zm27.453,4.445c-2.79,2.838-6.123,4.717-9.641,5.558,2.806-1.48,4.743-4.391,4.743-7.779s-1.943-6.309-4.755-7.786c3.521,.839,6.858,2.721,9.654,5.562,1.081,1.099,1.081,3.346,0,4.445h0Z" style="fill:#c4dffa;"/><polygon points="604.312 537.093 596.383 529.119 597.978 527.534 604.321 533.913 610.701 527.57 612.287 529.164 604.312 537.093" style="fill:#c4dffa;"/><g><rect x="1342.057" y="1146.716" width="385.701" height="428.171" rx="6.828" ry="6.828" transform="translate(172.097 2893.926) rotate(-89.925)" style="fill:#c4dffa;"/><g><path d="M1620.851,1437.173l-171.651-.225c-8.812-.011-15.967-7.185-15.955-15.991l.133-101.955c.012-8.806,7.185-15.96,15.997-15.949l25.407,.033,9.46-12.883c3.008-4.08,7.824-6.516,12.892-6.509l76.183,.099c5.067,.007,9.877,2.456,12.874,6.543l9.427,12.908,25.407,.033c8.812,.011,15.967,7.185,15.956,15.991l-.133,101.955c-.012,8.805-7.185,15.96-15.997,15.949h0Zm-171.489-123.528c-2.97-.004-5.389,2.409-5.393,5.373l-.133,101.955c-.004,2.964,2.409,5.383,5.379,5.387l171.651,.225c2.97,.004,5.39-2.409,5.393-5.373l.134-101.955c.004-2.963-2.409-5.383-5.379-5.387l-28.091-.036c-1.687-.002-3.275-.805-4.27-2.168l-11.013-15.073c-1.008-1.382-2.628-2.205-4.335-2.207l-76.183-.099c-1.707-.002-3.329,.816-4.341,2.195l-11.053,15.044c-.998,1.36-2.588,2.159-4.276,2.156l-28.091-.036h.001Z" style="fill:#fff;"/><path d="M1535.065,1404.593c-22.437-.029-40.663-18.303-40.634-40.74,.029-22.437,18.303-40.663,40.74-40.634,22.438,.03,40.67,18.303,40.64,40.74-.029,22.437-18.309,40.663-40.746,40.634h0Zm.092-70.783c-16.595-.022-30.114,13.462-30.136,30.057-.022,16.595,13.462,30.114,30.057,30.136,16.601,.022,30.121-13.462,30.142-30.057,.022-16.596-13.462-30.115-30.064-30.136h0Z" style="fill:#fff;"/></g></g><rect x="666.484" y="206.878" width="77.744" height="7.726" style="fill:#fff;"/><rect x="1054.709" y="206.878" width="77.744" height="7.726" style="fill:#fff;"/><rect x="852.913" y="206.878" width="77.744" height="7.726" style="fill:#4c95db;"/><rect x="183.574" y="95.352" width="113.826" height="7.726" style="fill:#e0effc;"/><rect x="183.574" y="132.56" width="301.901" height="16.836" style="fill:#c4dffa;"/><rect x="183.574" y="269.815" width="301.901" height="16.836" style="fill:#c4dffa;"/><rect x="183.574" y="394.227" width="301.901" height="16.836" style="fill:#c4dffa;"/><rect x="183.574" y="520.761" width="301.901" height="16.836" style="fill:#c4dffa;"/><rect x="183.574" y="231.949" width="113.826" height="7.726" style="fill:#e0effc;"/><rect x="183.574" y="357.145" width="113.826" height="7.726" style="fill:#e0effc;"/><rect x="183.574" y="482.845" width="113.826" height="7.726" style="fill:#e0effc;"/></svg>