<svg width="18" height="18" viewBox="0 0 18 18" fill="none" xmlns="http://www.w3.org/2000/svg">
<path d="M17 12.4727C16.5909 13.3577 16.3937 13.7532 15.8675 14.5342C15.1307 15.6256 14.0916 16.9883 12.8079 16.997C11.665 17.0071 11.37 16.2708 9.81792 16.2838C8.26736 16.2911 7.9442 17.0114 6.79981 16.9999C5.5146 16.9883 4.53179 15.7613 3.79505 14.6713C1.73456 11.6152 1.51665 8.0322 2.79 6.12665C3.69128 4.77544 5.11584 3.98146 6.45442 3.98146C7.8182 3.98146 8.67501 4.71047 9.80161 4.71047C10.8956 4.71047 11.5612 3.98001 13.1384 3.98001C14.3303 3.98001 15.5903 4.61231 16.4915 5.70367C13.5446 7.2772 14.0234 11.3756 17 12.4727ZM11.9407 2.76017C12.5143 2.0427 12.9502 1.03073 12.7916 0C11.8562 0.062075 10.7622 0.643847 10.1233 1.39741C9.54368 2.08456 9.06339 3.10375 9.25017 4.08973C10.2715 4.12149 11.3285 3.52816 11.9407 2.76017Z" fill="#201E26"/>
</svg>
