<svg width="18" height="18" viewBox="0 0 18 18" fill="none" xmlns="http://www.w3.org/2000/svg">
<path d="M17.8245 7.23716H17.0995V7.19981H8.99976V10.7997H14.086C13.3439 12.8953 11.35 14.3996 8.99976 14.3996C6.01769 14.3996 3.5999 11.9818 3.5999 8.99976C3.5999 6.01769 6.01769 3.5999 8.99976 3.5999C10.3763 3.5999 11.6286 4.11919 12.5821 4.96742L15.1277 2.42184C13.5203 0.923826 11.3703 0 8.99976 0C4.02964 0 0 4.02964 0 8.99976C0 13.9699 4.02964 17.9995 8.99976 17.9995C13.9699 17.9995 17.9995 13.9699 17.9995 8.99976C17.9995 8.39633 17.9374 7.80729 17.8245 7.23716Z" fill="#FFC107"/>
<path d="M1.03906 4.81082L3.99593 6.97931C4.79601 4.99847 6.73366 3.5999 9.00115 3.5999C10.3777 3.5999 11.63 4.11919 12.5835 4.96742L15.1291 2.42184C13.5217 0.923826 11.3717 0 9.00115 0C5.54434 0 2.54652 1.9516 1.03906 4.81082Z" fill="#FF3D00"/>
<path d="M9.00032 17.9997C11.325 17.9997 13.4372 17.1101 15.0342 15.6634L12.2488 13.3064C11.3452 13.9908 10.222 14.3998 9.00032 14.3998C6.65948 14.3998 4.67188 12.9072 3.9231 10.8242L0.988281 13.0854C2.47774 16 5.50256 17.9997 9.00032 17.9997Z" fill="#4CAF50"/>
<path d="M17.8247 7.23266H17.0998V7.19531H9V10.7952H14.0862C13.7298 11.8018 13.0823 12.6699 12.2471 13.3021C12.2476 13.3017 12.248 13.3017 12.2485 13.3012L15.0339 15.6582C14.8368 15.8373 17.9998 13.4951 17.9998 8.99526C17.9998 8.39183 17.9377 7.8028 17.8247 7.23266Z" fill="#1976D2"/>
</svg>
